<?xml version="1.0" standalone="no"?>
<!DOCTYPE svg PUBLIC "-//W3C//DTD SVG 20010904//EN"
 "http://www.w3.org/TR/2001/REC-SVG-20010904/DTD/svg10.dtd">
<svg version="1.0" xmlns="http://www.w3.org/2000/svg"
 width="300.000000pt" height="300.000000pt" viewBox="0 0 300.000000 300.000000"
 preserveAspectRatio="xMidYMid meet">
<metadata>
Created by potrace 1.10, written by Peter Selinger 2001-2011
</metadata>
<g transform="translate(0.000000,300.000000) scale(0.100000,-0.100000)"
fill="#000000" stroke="none">
<path d="M817 2038 c-14 -46 -29 -96 -33 -111 -6 -27 -8 -28 -67 -25 l-60 3
-32 100 c-18 55 -33 95 -34 90 -1 -9 25 -111 45 -177 4 -15 -1 -18 -25 -18
-28 0 -31 -3 -31 -32 l0 -33 140 0 140 0 0 33 c0 30 -2 32 -34 32 l-34 0 29
107 c16 59 27 108 25 110 -2 2 -15 -34 -29 -79z"/>
<path d="M1855 1840 c-33 -14 -66 -51 -89 -99 -18 -39 -21 -65 -21 -172 0
-120 1 -128 30 -184 36 -69 76 -95 148 -95 139 0 205 102 194 304 -6 133 -39
206 -107 241 -31 16 -122 19 -155 5z m-3 -87 c-26 -46 -27 -55 -27 -183 0
-119 3 -140 22 -179 12 -25 20 -47 18 -49 -11 -11 -63 61 -75 102 -20 71 -9
241 18 293 20 37 44 62 64 63 4 0 -5 -21 -20 -47z m170 20 c26 -25 28 -32 27
-102 -1 -42 -4 -62 -6 -46 -7 56 -33 132 -48 145 -16 13 -20 30 -8 30 4 0 20
-12 35 -27z m-42 -49 c11 -21 15 -63 15 -159 0 -113 -3 -135 -21 -165 -25 -44
-58 -47 -88 -7 -18 24 -22 45 -24 145 -4 128 7 191 39 223 18 18 23 19 42 6
12 -8 29 -27 37 -43z m114 -159 c1 -83 -3 -119 -16 -145 l-17 -35 7 35 c4 19
7 94 7 167 0 91 3 125 9 110 5 -12 10 -71 10 -132z m-54 -155 c0 -26 -36 -77
-47 -66 -4 4 39 96 44 96 2 0 3 -13 3 -30z"/>
<path d="M1330 1684 c-98 -145 -105 -159 -110 -215 l-5 -59 113 0 112 0 0 -60
0 -60 55 0 55 0 0 60 0 60 40 0 40 0 0 45 0 45 -40 0 -41 0 3 170 3 170 -60 0
-60 -1 -105 -155z m180 104 c0 -7 -8 -35 -18 -61 -17 -43 -20 -46 -32 -32 -8
10 -23 15 -37 12 -13 -2 -23 -2 -23 0 0 10 24 50 43 71 22 24 67 30 67 10z
m20 -138 c0 -49 -3 -90 -7 -90 -5 0 -7 39 -6 87 3 104 2 93 8 93 3 0 5 -40 5
-90z m-90 -50 l0 -100 -70 0 -69 0 56 78 c30 42 60 87 66 100 6 12 12 22 14
22 1 0 3 -45 3 -100z m65 -61 c4 -11 20 -35 36 -53 l28 -33 -39 -32 c-45 -36
-56 -38 -65 -11 -3 11 -16 25 -27 31 -20 11 -20 11 5 37 14 15 29 39 32 55 8
32 21 35 30 6z m-201 -57 l30 -32 -37 0 c-34 0 -37 2 -37 28 0 23 10 51 14 39
1 -1 14 -17 30 -35z"/>
<path d="M2335 1678 c-103 -152 -110 -164 -111 -215 l-2 -53 114 0 114 0 0
-60 0 -60 55 0 55 0 0 60 0 60 40 0 40 0 0 45 0 45 -40 0 -41 0 3 170 3 170
-60 0 -60 -1 -110 -161z m185 110 c0 -7 -8 -35 -18 -61 -17 -43 -20 -46 -32
-32 -8 10 -23 15 -37 12 -13 -2 -23 -2 -23 0 0 10 24 50 43 71 22 24 67 30 67
10z m18 -140 l-2 -93 -5 85 c-3 47 -5 88 -3 93 9 21 12 -2 10 -85z m-88 -48
l0 -100 -70 0 -69 0 56 78 c30 42 60 87 66 100 6 12 12 22 14 22 1 0 3 -45 3
-100z m103 -115 l27 -33 -24 -15 c-13 -9 -31 -23 -40 -32 -16 -16 -19 -15 -51
18 l-34 35 24 22 c13 12 27 36 31 54 l7 31 16 -23 c9 -13 28 -38 44 -57z
m-239 -3 l30 -32 -36 0 c-40 0 -54 19 -37 52 6 11 11 18 12 16 1 -2 15 -18 31
-36z"/>
<path d="M415 1818 c-53 -29 -55 -37 -55 -276 l0 -224 29 -29 c22 -22 39 -29
68 -29 427 -3 557 0 580 16 45 29 53 68 53 270 0 206 -8 242 -61 269 -37 20
-155 20 -175 1 -11 -11 -43 -15 -134 -15 -91 0 -123 4 -134 15 -18 17 -141 19
-171 2z m627 -52 c4 -6 8 -17 8 -24 0 -14 -9 -7 -39 31 -12 16 -12 17 5 10 10
-3 22 -11 26 -17z m-51 -15 l29 -29 0 -182 0 -182 -29 -29 -29 -29 -241 0
-241 0 -32 29 -33 29 -3 153 c-4 180 0 208 35 243 l26 26 244 0 245 0 29 -29z"/>
<path d="M483 1685 c-7 -20 -14 -16 95 -55 50 -18 92 -34 92 -35 0 -2 -43 -18
-95 -36 -86 -31 -110 -48 -87 -63 5 -3 59 14 121 39 l112 43 112 -44 c62 -24
115 -44 120 -44 4 0 7 8 7 18 0 13 -23 26 -95 51 -52 18 -95 35 -95 36 0 2 43
18 95 36 71 26 95 38 95 52 0 9 -3 17 -8 17 -4 0 -58 -20 -119 -44 l-113 -44
-111 44 c-62 24 -114 44 -116 44 -2 0 -6 -7 -10 -15z"/>
<path d="M678 1451 c-35 -11 -77 -43 -78 -58 0 -20 24 -21 52 -1 46 32 88 33
131 4 38 -26 57 -27 57 -3 0 19 -64 57 -101 62 -19 2 -46 0 -61 -4z"/>
</g>
</svg>
